<svg xmlns="http://www.w3.org/2000/svg" xmlns:xlink="http://www.w3.org/1999/xlink" contentStyleType="text/css" data-diagram-type="ACTIVITY" height="1107px" preserveAspectRatio="none" style="width:792px;height:1107px;background:#FFFFFF;" version="1.1" viewBox="0 0 792 1107" width="792px" zoomAndPan="magnify"><?plantuml 1.2026.6?><defs/><g><g class="title" data-source-line="1"><text fill="#000000" font-family="sans-serif" font-size="14" font-weight="700" lengthAdjust="spacing" textLength="168.8682" x="311.061" y="32.9951">NEXUS - Activity 05.4</text></g><ellipse cx="394.2878" cy="62.2969" fill="#222222" rx="10" ry="10" style="stroke:#222222;stroke-width:1;"/><rect fill="none" height="136.2344" style="stroke:#000000;stroke-width:1.5;" width="198.3672" x="295.1042" y="82.2969"/><path d="M417.3367,82.2969 L417.3367,91.5938 L407.3367,101.5938 L295.1042,101.5938" fill="none" style="stroke:#000000;stroke-width:1.5;"/><text fill="#000000" font-family="sans-serif" font-size="14" lengthAdjust="spacing" textLength="112.2324" x="298.1042" y="96.292">Authorized User</text><rect fill="#F8F9FA" height="33.9688" rx="12.5" ry="12.5" style="stroke:#343A40;stroke-width:0.5;" width="173.8672" x="307.3542" y="118.5938"/><text fill="#000000" font-family="sans-serif" font-size="12" lengthAdjust="spacing" textLength="153.8672" x="317.3542" y="139.7324">Open administration area</text><rect fill="#F8F9FA" height="33.9688" rx="12.5" ry="12.5" style="stroke:#343A40;stroke-width:0.5;" width="178.3672" x="305.1042" y="172.5625"/><text fill="#000000" font-family="sans-serif" font-size="12" lengthAdjust="spacing" textLength="158.3672" x="315.1042" y="193.7012">Choose Reporting or Audit</text><polygon fill="#FFFFFF" points="364.3843,238.5313,424.1914,238.5313,436.1914,250.5313,424.1914,262.5313,364.3843,262.5313,352.3843,250.5313,364.3843,238.5313" style="stroke:#343A40;stroke-width:0.5;stroke-linejoin:miter;stroke-miterlimit:10;"/><text fill="#000000" font-family="sans-serif" font-size="11" lengthAdjust="spacing" textLength="59.8071" x="364.3843" y="254.3394">Reporting?</text><text fill="#000000" font-family="sans-serif" font-size="11" lengthAdjust="spacing" textLength="19.2178" x="333.1665" y="247.937">Yes</text><text fill="#000000" font-family="sans-serif" font-size="11" lengthAdjust="spacing" textLength="28.8481" x="436.1914" y="247.937">Audit</text><rect fill="none" height="217.875" style="stroke:#000000;stroke-width:1.5;" width="178.3457" x="98.917" y="272.5313"/><path d="M221.1494,272.5313 L221.1494,281.8281 L211.1494,291.8281 L98.917,291.8281" fill="none" style="stroke:#000000;stroke-width:1.5;"/><text fill="#000000" font-family="sans-serif" font-size="14" lengthAdjust="spacing" textLength="112.2324" x="101.917" y="286.5264">Authorized User</text><rect fill="#F8F9FA" height="33.9688" rx="12.5" ry="12.5" style="stroke:#343A40;stroke-width:0.5;" width="128.3691" x="123.9053" y="308.8281"/><text fill="#000000" font-family="sans-serif" font-size="12" lengthAdjust="spacing" textLength="108.3691" x="133.9053" y="329.9668">Select report type</text><rect fill="#F8F9FA" height="33.9688" rx="12.5" ry="12.5" style="stroke:#343A40;stroke-width:0.5;" width="158.3457" x="108.917" y="369.7969"/><text fill="#000000" font-family="sans-serif" font-size="12" lengthAdjust="spacing" textLength="138.3457" x="118.917" y="390.9355">Select reporting period</text><rect fill="#F8F9FA" height="33.9688" rx="12.5" ry="12.5" style="stroke:#343A40;stroke-width:0.5;" width="110.0117" x="133.084" y="438.7656"/><text fill="#000000" font-family="sans-serif" font-size="12" lengthAdjust="spacing" textLength="90.0117" x="143.084" y="459.9043">Request report</text><rect fill="none" height="378.5" style="stroke:#000000;stroke-width:1.5;" width="342.9922" x="16" y="525.4063"/><path d="M74.043,525.4063 L74.043,534.7031 L64.043,544.7031 L16,544.7031" fill="none" style="stroke:#000000;stroke-width:1.5;"/><text fill="#000000" font-family="sans-serif" font-size="14" lengthAdjust="spacing" textLength="48.043" x="19" y="539.4014">NEXUS</text><rect fill="#F8F9FA" height="33.9688" rx="12.5" ry="12.5" style="stroke:#343A40;stroke-width:0.5;" width="197.1816" x="89.499" y="561.7031"/><text fill="#000000" font-family="sans-serif" font-size="12" lengthAdjust="spacing" textLength="177.1816" x="99.499" y="582.8418">Validate organization context</text><rect fill="#F8F9FA" height="33.9688" rx="12.5" ry="12.5" style="stroke:#343A40;stroke-width:0.5;" width="152.6211" x="111.7793" y="630.6719"/><text fill="#000000" font-family="sans-serif" font-size="12" lengthAdjust="spacing" textLength="132.6211" x="121.7793" y="651.8105">Validate authorization</text><polygon fill="#FFFFFF" points="155.3638,699.6406,220.8159,699.6406,232.8159,711.6406,220.8159,723.6406,155.3638,723.6406,143.3638,711.6406,155.3638,699.6406" style="stroke:#343A40;stroke-width:0.5;stroke-linejoin:miter;stroke-miterlimit:10;"/><text fill="#000000" font-family="sans-serif" font-size="11" lengthAdjust="spacing" textLength="65.4521" x="155.3638" y="715.4487">Authorized?</text><text fill="#000000" font-family="sans-serif" font-size="11" lengthAdjust="spacing" textLength="19.2178" x="124.146" y="709.0464">Yes</text><text fill="#000000" font-family="sans-serif" font-size="11" lengthAdjust="spacing" textLength="14.9585" x="232.8159" y="709.0464">No</text><rect fill="#F8F9FA" height="33.9688" rx="12.5" ry="12.5" style="stroke:#343A40;stroke-width:0.5;" width="116.7734" x="46.9551" y="733.6406"/><text fill="#000000" font-family="sans-serif" font-size="12" lengthAdjust="spacing" textLength="96.7734" x="56.9551" y="754.7793">Generate report</text><rect fill="#F8F9FA" height="33.9688" rx="12.5" ry="12.5" style="stroke:#343A40;stroke-width:0.5;" width="154.6836" x="28" y="802.6094"/><text fill="#000000" font-family="sans-serif" font-size="12" lengthAdjust="spacing" textLength="134.6836" x="38" y="823.748">Store report metadata</text><rect fill="#F8F9FA" height="33.9688" rx="12.5" ry="12.5" style="stroke:#343A40;stroke-width:0.5;" width="134.6328" x="38.0254" y="857.9375"/><text fill="#000000" font-family="sans-serif" font-size="12" lengthAdjust="spacing" textLength="114.6328" x="48.0254" y="879.0762">Record audit event</text><rect fill="#F8F9FA" height="33.9688" rx="12.5" ry="12.5" style="stroke:#343A40;stroke-width:0.5;" width="136.3086" x="202.6836" y="733.6406"/><text fill="#000000" font-family="sans-serif" font-size="12" lengthAdjust="spacing" textLength="116.3086" x="212.6836" y="754.7793">Deny report access</text><ellipse cx="270.8379" cy="813.6094" fill="none" rx="11" ry="11" style="stroke:#222222;stroke-width:1;"/><ellipse cx="270.8379" cy="813.6094" fill="#222222" rx="6" ry="6" style="stroke:#222222;stroke-width:1;"/><rect fill="none" height="82.2656" style="stroke:#000000;stroke-width:1.5;" width="175.2637" x="100.458" y="913.9063"/><path d="M222.6904,913.9063 L222.6904,923.2031 L212.6904,933.2031 L100.458,933.2031" fill="none" style="stroke:#000000;stroke-width:1.5;"/><text fill="#000000" font-family="sans-serif" font-size="14" lengthAdjust="spacing" textLength="112.2324" x="103.458" y="927.9014">Authorized User</text><rect fill="#F8F9FA" height="33.9688" rx="12.5" ry="12.5" style="stroke:#343A40;stroke-width:0.5;" width="155.2637" x="110.458" y="950.2031"/><text fill="#000000" font-family="sans-serif" font-size="12" lengthAdjust="spacing" textLength="135.2637" x="120.458" y="971.3418">View generated report</text><rect fill="none" height="82.2656" style="stroke:#000000;stroke-width:1.5;" width="152.0723" x="524.4497" y="272.5313"/><path d="M646.6821,272.5313 L646.6821,281.8281 L636.6821,291.8281 L524.4497,291.8281" fill="none" style="stroke:#000000;stroke-width:1.5;"/><text fill="#000000" font-family="sans-serif" font-size="14" lengthAdjust="spacing" textLength="112.2324" x="527.4497" y="286.5264">Authorized User</text><rect fill="#F8F9FA" height="33.9688" rx="12.5" ry="12.5" style="stroke:#343A40;stroke-width:0.5;" width="132.0723" x="534.4497" y="308.8281"/><text fill="#000000" font-family="sans-serif" font-size="12" lengthAdjust="spacing" textLength="112.0723" x="544.4497" y="329.9668">Request audit logs</text><rect fill="none" height="322.875" style="stroke:#000000;stroke-width:1.5;" width="393.998" x="378.9922" y="389.7969"/><path d="M437.0352,389.7969 L437.0352,399.0938 L427.0352,409.0938 L378.9922,409.0938" fill="none" style="stroke:#000000;stroke-width:1.5;"/><text fill="#000000" font-family="sans-serif" font-size="14" lengthAdjust="spacing" textLength="48.043" x="381.9922" y="403.792">NEXUS</text><rect fill="#F8F9FA" height="33.9688" rx="12.5" ry="12.5" style="stroke:#343A40;stroke-width:0.5;" width="197.1816" x="501.895" y="426.0938"/><text fill="#000000" font-family="sans-serif" font-size="12" lengthAdjust="spacing" textLength="177.1816" x="511.895" y="447.2324">Validate organization context</text><rect fill="#F8F9FA" height="33.9688" rx="12.5" ry="12.5" style="stroke:#343A40;stroke-width:0.5;" width="152.6211" x="524.1753" y="492.7344"/><text fill="#000000" font-family="sans-serif" font-size="12" lengthAdjust="spacing" textLength="132.6211" x="534.1753" y="513.873">Validate authorization</text><polygon fill="#FFFFFF" points="567.7598,561.7031,633.2119,561.7031,645.2119,573.7031,633.2119,585.7031,567.7598,585.7031,555.7598,573.7031,567.7598,561.7031" style="stroke:#343A40;stroke-width:0.5;stroke-linejoin:miter;stroke-miterlimit:10;"/><text fill="#000000" font-family="sans-serif" font-size="11" lengthAdjust="spacing" textLength="65.4521" x="567.7598" y="577.5112">Authorized?</text><text fill="#000000" font-family="sans-serif" font-size="11" lengthAdjust="spacing" textLength="19.2178" x="536.542" y="571.1089">Yes</text><text fill="#000000" font-family="sans-serif" font-size="11" lengthAdjust="spacing" textLength="14.9585" x="645.2119" y="571.1089">No</text><rect fill="#F8F9FA" height="33.9688" rx="12.5" ry="12.5" style="stroke:#343A40;stroke-width:0.5;" width="211.9883" x="398.9922" y="595.7031"/><text fill="#000000" font-family="sans-serif" font-size="12" lengthAdjust="spacing" textLength="191.9883" x="408.9922" y="616.8418">Retrieve organization audit logs</text><rect fill="#F8F9FA" height="33.9688" rx="12.5" ry="12.5" style="stroke:#343A40;stroke-width:0.5;" width="130.0098" x="630.9805" y="595.7031"/><text fill="#000000" font-family="sans-serif" font-size="12" lengthAdjust="spacing" textLength="110.0098" x="640.9805" y="616.8418">Deny audit access</text><ellipse cx="695.9854" cy="675.6719" fill="none" rx="11" ry="11" style="stroke:#222222;stroke-width:1;"/><ellipse cx="695.9854" cy="675.6719" fill="#222222" rx="6" ry="6" style="stroke:#222222;stroke-width:1;"/><rect fill="none" height="90.2656" style="stroke:#000000;stroke-width:1.5;" width="132.2324" x="534.3696" y="747.6719"/><path d="M656.6021,747.6719 L656.6021,756.9688 L646.6021,766.9688 L534.3696,766.9688" fill="none" style="stroke:#000000;stroke-width:1.5;"/><text fill="#000000" font-family="sans-serif" font-size="14" lengthAdjust="spacing" textLength="112.2324" x="537.3696" y="761.667">Authorized User</text><rect fill="#F8F9FA" height="33.9688" rx="12.5" ry="12.5" style="stroke:#343A40;stroke-width:0.5;" width="111.5293" x="544.7212" y="783.9688"/><text fill="#000000" font-family="sans-serif" font-size="12" lengthAdjust="spacing" textLength="91.5293" x="554.7212" y="805.1074">View audit logs</text><polygon fill="#FFFFFF" points="394.2878,1002.1719,406.2878,1014.1719,394.2878,1026.1719,382.2878,1014.1719,394.2878,1002.1719" style="stroke:#343A40;stroke-width:0.5;stroke-linejoin:miter;stroke-miterlimit:10;"/><ellipse cx="394.2878" cy="1057.1719" fill="none" rx="11" ry="11" style="stroke:#222222;stroke-width:1;"/><ellipse cx="394.2878" cy="1057.1719" fill="#222222" rx="6" ry="6" style="stroke:#222222;stroke-width:1;"/><line style="stroke:#181818;stroke-width:1;" x1="394.2878" x2="394.2878" y1="152.5625" y2="172.5625"/><polygon fill="#181818" points="390.2878,162.5625,394.2878,172.5625,398.2878,162.5625,394.2878,166.5625" style="stroke:#181818;stroke-width:1;stroke-linejoin:miter;stroke-miterlimit:10;"/><line style="stroke:#181818;stroke-width:1;" x1="394.2878" x2="394.2878" y1="72.2969" y2="118.5938"/><polygon fill="#181818" points="390.2878,108.5938,394.2878,118.5938,398.2878,108.5938,394.2878,112.5938" style="stroke:#181818;stroke-width:1;stroke-linejoin:miter;stroke-miterlimit:10;"/><line style="stroke:#181818;stroke-width:1;" x1="188.0898" x2="188.0898" y1="342.7969" y2="369.7969"/><polygon fill="#181818" points="184.0898,359.7969,188.0898,369.7969,192.0898,359.7969,188.0898,363.7969" style="stroke:#181818;stroke-width:1;stroke-linejoin:miter;stroke-miterlimit:10;"/><line style="stroke:#181818;stroke-width:1;" x1="188.0898" x2="188.0898" y1="403.7656" y2="438.7656"/><polygon fill="#181818" points="184.0898,428.7656,188.0898,438.7656,192.0898,428.7656,188.0898,432.7656" style="stroke:#181818;stroke-width:1;stroke-linejoin:miter;stroke-miterlimit:10;"/><line style="stroke:#181818;stroke-width:1;" x1="188.0898" x2="188.0898" y1="595.6719" y2="630.6719"/><polygon fill="#181818" points="184.0898,620.6719,188.0898,630.6719,192.0898,620.6719,188.0898,624.6719" style="stroke:#181818;stroke-width:1;stroke-linejoin:miter;stroke-miterlimit:10;"/><line style="stroke:#181818;stroke-width:1;" x1="105.3418" x2="105.3418" y1="767.6094" y2="802.6094"/><polygon fill="#181818" points="101.3418,792.6094,105.3418,802.6094,109.3418,792.6094,105.3418,796.6094" style="stroke:#181818;stroke-width:1;stroke-linejoin:miter;stroke-miterlimit:10;"/><line style="stroke:#181818;stroke-width:1;" x1="105.3418" x2="105.3418" y1="836.5781" y2="857.9375"/><polygon fill="#181818" points="101.3418,847.9375,105.3418,857.9375,109.3418,847.9375,105.3418,851.9375" style="stroke:#181818;stroke-width:1;stroke-linejoin:miter;stroke-miterlimit:10;"/><line style="stroke:#181818;stroke-width:1;" x1="270.8379" x2="270.8379" y1="767.6094" y2="802.6094"/><polygon fill="#181818" points="266.8379,792.6094,270.8379,802.6094,274.8379,792.6094,270.8379,796.6094" style="stroke:#181818;stroke-width:1;stroke-linejoin:miter;stroke-miterlimit:10;"/><line style="stroke:#181818;stroke-width:1;" x1="143.3638" x2="105.3418" y1="711.6406" y2="711.6406"/><line style="stroke:#181818;stroke-width:1;" x1="105.3418" x2="105.3418" y1="711.6406" y2="733.6406"/><polygon fill="#181818" points="101.3418,723.6406,105.3418,733.6406,109.3418,723.6406,105.3418,727.6406" style="stroke:#181818;stroke-width:1;stroke-linejoin:miter;stroke-miterlimit:10;"/><line style="stroke:#181818;stroke-width:1;" x1="232.8159" x2="270.8379" y1="711.6406" y2="711.6406"/><line style="stroke:#181818;stroke-width:1;" x1="270.8379" x2="270.8379" y1="711.6406" y2="733.6406"/><polygon fill="#181818" points="266.8379,723.6406,270.8379,733.6406,274.8379,723.6406,270.8379,727.6406" style="stroke:#181818;stroke-width:1;stroke-linejoin:miter;stroke-miterlimit:10;"/><line style="stroke:#181818;stroke-width:1;" x1="105.3418" x2="105.3418" y1="891.9063" y2="896.9063"/><line style="stroke:#181818;stroke-width:1;" x1="105.3418" x2="188.0898" y1="896.9063" y2="896.9063"/><line style="stroke:#181818;stroke-width:1;" x1="188.0898" x2="188.0898" y1="896.9063" y2="950.2031"/><polygon fill="#181818" points="184.0898,940.2031,188.0898,950.2031,192.0898,940.2031,188.0898,944.2031" style="stroke:#181818;stroke-width:1;stroke-linejoin:miter;stroke-miterlimit:10;"/><line style="stroke:#181818;stroke-width:1;" x1="188.0898" x2="188.0898" y1="664.6406" y2="699.6406"/><polygon fill="#181818" points="184.0898,689.6406,188.0898,699.6406,192.0898,689.6406,188.0898,693.6406" style="stroke:#181818;stroke-width:1;stroke-linejoin:miter;stroke-miterlimit:10;"/><line style="stroke:#181818;stroke-width:1;" x1="188.0898" x2="188.0898" y1="472.7344" y2="561.7031"/><polygon fill="#181818" points="184.0898,551.7031,188.0898,561.7031,192.0898,551.7031,188.0898,555.7031" style="stroke:#181818;stroke-width:1;stroke-linejoin:miter;stroke-miterlimit:10;"/><line style="stroke:#181818;stroke-width:1;" x1="600.4858" x2="600.4858" y1="460.0625" y2="492.7344"/><polygon fill="#181818" points="596.4858,482.7344,600.4858,492.7344,604.4858,482.7344,600.4858,486.7344" style="stroke:#181818;stroke-width:1;stroke-linejoin:miter;stroke-miterlimit:10;"/><line style="stroke:#181818;stroke-width:1;" x1="695.9854" x2="695.9854" y1="629.6719" y2="664.6719"/><polygon fill="#181818" points="691.9854,654.6719,695.9854,664.6719,699.9854,654.6719,695.9854,658.6719" style="stroke:#181818;stroke-width:1;stroke-linejoin:miter;stroke-miterlimit:10;"/><line style="stroke:#181818;stroke-width:1;" x1="555.7598" x2="504.9863" y1="573.7031" y2="573.7031"/><line style="stroke:#181818;stroke-width:1;" x1="504.9863" x2="504.9863" y1="573.7031" y2="595.7031"/><polygon fill="#181818" points="500.9863,585.7031,504.9863,595.7031,508.9863,585.7031,504.9863,589.7031" style="stroke:#181818;stroke-width:1;stroke-linejoin:miter;stroke-miterlimit:10;"/><line style="stroke:#181818;stroke-width:1;" x1="645.2119" x2="695.9854" y1="573.7031" y2="573.7031"/><line style="stroke:#181818;stroke-width:1;" x1="695.9854" x2="695.9854" y1="573.7031" y2="595.7031"/><polygon fill="#181818" points="691.9854,585.7031,695.9854,595.7031,699.9854,585.7031,695.9854,589.7031" style="stroke:#181818;stroke-width:1;stroke-linejoin:miter;stroke-miterlimit:10;"/><line style="stroke:#181818;stroke-width:1;" x1="504.9863" x2="504.9863" y1="629.6719" y2="692.6719"/><line style="stroke:#181818;stroke-width:1;" x1="504.9863" x2="600.4858" y1="692.6719" y2="692.6719"/><line style="stroke:#181818;stroke-width:1;" x1="600.4858" x2="600.4858" y1="692.6719" y2="783.9688"/><polygon fill="#181818" points="596.4858,773.9688,600.4858,783.9688,604.4858,773.9688,600.4858,777.9688" style="stroke:#181818;stroke-width:1;stroke-linejoin:miter;stroke-miterlimit:10;"/><line style="stroke:#181818;stroke-width:1;" x1="600.4858" x2="600.4858" y1="526.7031" y2="561.7031"/><polygon fill="#181818" points="596.4858,551.7031,600.4858,561.7031,604.4858,551.7031,600.4858,555.7031" style="stroke:#181818;stroke-width:1;stroke-linejoin:miter;stroke-miterlimit:10;"/><line style="stroke:#181818;stroke-width:1;" x1="600.4858" x2="600.4858" y1="342.7969" y2="426.0938"/><polygon fill="#181818" points="596.4858,416.0938,600.4858,426.0938,604.4858,416.0938,600.4858,420.0938" style="stroke:#181818;stroke-width:1;stroke-linejoin:miter;stroke-miterlimit:10;"/><line style="stroke:#181818;stroke-width:1;" x1="352.3843" x2="188.0898" y1="250.5313" y2="250.5313"/><line style="stroke:#181818;stroke-width:1;" x1="188.0898" x2="188.0898" y1="250.5313" y2="308.8281"/><polygon fill="#181818" points="184.0898,298.8281,188.0898,308.8281,192.0898,298.8281,188.0898,302.8281" style="stroke:#181818;stroke-width:1;stroke-linejoin:miter;stroke-miterlimit:10;"/><line style="stroke:#181818;stroke-width:1;" x1="436.1914" x2="600.4858" y1="250.5313" y2="250.5313"/><line style="stroke:#181818;stroke-width:1;" x1="600.4858" x2="600.4858" y1="250.5313" y2="308.8281"/><polygon fill="#181818" points="596.4858,298.8281,600.4858,308.8281,604.4858,298.8281,600.4858,302.8281" style="stroke:#181818;stroke-width:1;stroke-linejoin:miter;stroke-miterlimit:10;"/><line style="stroke:#181818;stroke-width:1;" x1="188.0898" x2="188.0898" y1="984.1719" y2="1014.1719"/><line style="stroke:#181818;stroke-width:1;" x1="188.0898" x2="382.2878" y1="1014.1719" y2="1014.1719"/><polygon fill="#181818" points="372.2878,1010.1719,382.2878,1014.1719,372.2878,1018.1719,376.2878,1014.1719" style="stroke:#181818;stroke-width:1;stroke-linejoin:miter;stroke-miterlimit:10;"/><line style="stroke:#181818;stroke-width:1;" x1="600.4858" x2="600.4858" y1="817.9375" y2="1014.1719"/><line style="stroke:#181818;stroke-width:1;" x1="600.4858" x2="406.2878" y1="1014.1719" y2="1014.1719"/><polygon fill="#181818" points="416.2878,1010.1719,406.2878,1014.1719,416.2878,1018.1719,412.2878,1014.1719" style="stroke:#181818;stroke-width:1;stroke-linejoin:miter;stroke-miterlimit:10;"/><line style="stroke:#181818;stroke-width:1;" x1="394.2878" x2="394.2878" y1="206.5313" y2="238.5313"/><polygon fill="#181818" points="390.2878,228.5313,394.2878,238.5313,398.2878,228.5313,394.2878,232.5313" style="stroke:#181818;stroke-width:1;stroke-linejoin:miter;stroke-miterlimit:10;"/><line style="stroke:#181818;stroke-width:1;" x1="394.2878" x2="394.2878" y1="1026.1719" y2="1046.1719"/><polygon fill="#181818" points="390.2878,1036.1719,394.2878,1046.1719,398.2878,1036.1719,394.2878,1040.1719" style="stroke:#181818;stroke-width:1;stroke-linejoin:miter;stroke-miterlimit:10;"/><g class="caption" data-source-line="2"><text fill="#000000" font-family="sans-serif" font-size="14" lengthAdjust="spacing" textLength="125.2207" x="332.8848" y="1091.167">Reporting &amp; Audit</text></g><?plantuml-src pLBBJkim4DtdAqOWeR808L4aBbcWy2Wxa8f0i1p5qtH4wWds52Y8Vx-Eqz2qlCG22Iyzn-SnnyfQ4foVtbnTmXPakV83wmnszhRxIOwLibWOKYLEsHQm0TdKi2Q9lsDReSC9-34QUQo78omzTIROahqa4CuHvdU5awarnrAAW_N1_k3V86jcuWov-VrkVpVhxyJx4yQ9MFF-QJp9Qp2Yw8AVeAWSpQvbKnsBusSoSEN9hStb3ougie1cmfQzEenWT8HfCpuUYtZgP0qwCMnQo_08Uc-ZmqtGSI3htPBVJEBpx_MZo2MLb2kuo0GwgoZzP5WxgCYnc0vYIFTJyYsa6Ro-Cn3BN9Aznf8DAeLC1Lf-RiBdOfMUDFq0X_CC4PWcRuXw3Ojyotk0pZau8qkkPkfQNIHLSUq89gGOH745CwGyV8hW95G0z42sGqBXeq7lN5P4JyZEMbRCS_9-cTEhL0iEQtZqoGQ_gl2QwH6AUJopMaNZBFwRd_sCjjecRoc5_ylr3aaTXrAM5LUzVrTLW__TfZxOPyENr1h_0G00?></g></svg>